<svg width="233" height="187" viewBox="0 0 233 187" fill="none" xmlns="http://www.w3.org/2000/svg">
<path d="M190.244 25.3951C190.185 25.2799 190.086 25.1897 189.967 25.1405C176.14 18.78 161.548 14.2444 146.557 11.6474C146.421 11.622 146.281 11.6403 146.155 11.6997C146.03 11.7591 145.927 11.8566 145.86 11.9783C143.873 15.5939 142.069 19.3077 140.456 23.1056C124.297 20.6463 107.86 20.6463 91.7003 23.1056C90.076 19.2981 88.2435 15.5833 86.2109 11.9783C86.1412 11.8592 86.0373 11.764 85.9129 11.705C85.7884 11.6459 85.6491 11.6259 85.5131 11.6474C70.5207 14.239 55.9282 18.7749 42.1029 25.1409C41.9846 25.1912 41.8847 25.2771 41.8171 25.3867C14.1693 66.7826 6.59554 107.161 10.311 147.039C10.3214 147.137 10.3514 147.231 10.3991 147.317C10.4467 147.403 10.5111 147.478 10.5884 147.539C26.6875 159.49 44.6945 168.612 63.841 174.517C63.9759 174.557 64.1198 174.556 64.2536 174.512C64.3874 174.468 64.5045 174.384 64.5893 174.271C68.7015 168.661 72.3453 162.721 75.4835 156.51C75.5266 156.425 75.5512 156.331 75.5557 156.236C75.5602 156.141 75.5445 156.045 75.5096 155.956C75.4747 155.867 75.4213 155.787 75.3532 155.72C75.285 155.653 75.2034 155.602 75.1139 155.569C69.368 153.365 63.8052 150.708 58.4779 147.622C58.3811 147.565 58.2998 147.485 58.2412 147.389C58.1826 147.293 58.1485 147.184 58.1419 147.072C58.1352 146.96 58.1563 146.847 58.2032 146.745C58.2501 146.643 58.3214 146.554 58.4108 146.486C59.5286 145.646 60.6471 144.773 61.7145 143.89C61.8094 143.812 61.9241 143.762 62.0459 143.745C62.1676 143.729 62.2915 143.747 62.4037 143.797C97.3054 159.767 135.091 159.767 169.58 143.797C169.692 143.744 169.817 143.723 169.941 143.738C170.064 143.753 170.181 143.803 170.278 143.882C171.345 144.764 172.464 145.646 173.59 146.486C173.68 146.553 173.752 146.642 173.799 146.743C173.847 146.845 173.869 146.957 173.863 147.07C173.857 147.182 173.824 147.291 173.766 147.388C173.708 147.484 173.627 147.565 173.531 147.622C168.216 150.734 162.648 153.389 156.887 155.561C156.797 155.595 156.716 155.647 156.648 155.715C156.581 155.783 156.528 155.864 156.494 155.954C156.46 156.044 156.445 156.14 156.45 156.235C156.455 156.331 156.48 156.425 156.524 156.51C159.715 162.686 163.353 168.619 167.41 174.261C167.492 174.377 167.609 174.464 167.743 174.509C167.878 174.555 168.023 174.557 168.158 174.516C187.339 168.631 205.378 159.508 221.497 147.539C221.575 147.481 221.641 147.408 221.689 147.323C221.736 147.238 221.766 147.144 221.774 147.047C226.222 100.944 214.328 60.8968 190.244 25.3951ZM80.6958 122.757C70.1878 122.757 61.5296 113.089 61.5296 101.216C61.5296 89.342 70.0199 79.6733 80.6958 79.6733C91.4551 79.6733 100.03 89.426 99.8616 101.215C99.8616 113.089 91.371 122.757 80.6958 122.757ZM151.559 122.757C141.051 122.757 132.393 113.089 132.393 101.216C132.393 89.342 140.883 79.6733 151.559 79.6733C162.319 79.6733 170.893 89.426 170.725 101.215C170.725 113.089 162.319 122.757 151.559 122.757Z" fill="white"/>
</svg>
